<svg width="179" height="101" viewBox="0 0 179 101" fill="none" xmlns="http://www.w3.org/2000/svg">
<g clip-path="url(#clip0_35_3833)">
<path d="M89.7961 83.5879C88.8196 82.6685 87.5013 82.1363 86.1342 82.1847H80.7146C80.324 82.1847 79.9822 82.2331 79.5916 82.2815V76.3784H75.4903V94.7649H79.5916V87.4103C79.5916 86.9265 79.7869 86.4426 80.1775 86.1039C80.5681 85.6684 81.154 85.4749 81.6911 85.4749H85.1089C85.646 85.4265 86.2319 85.6201 86.6225 86.0071C87.0131 86.3458 87.2084 86.8297 87.2084 87.3619V94.7649H91.3097V86.8781C91.3585 85.5717 90.7726 84.362 89.7961 83.5879Z" fill="#445C5F"/>
<path d="M118.017 94.7649C116.845 94.8133 115.722 94.3294 114.892 93.5552C114.111 92.8295 113.672 91.8134 113.672 90.7489C113.672 89.636 114.111 88.6199 114.892 87.8458C115.722 87.0232 116.845 86.5877 118.017 86.6361H126.025C126.952 86.6361 126.562 87.1684 126.025 87.7006V86.3458C126.025 86.0071 125.878 85.6684 125.634 85.4749C125.341 85.1846 124.999 85.0394 124.609 85.0878H114.892V82.233H126.171C127.245 82.1847 128.319 82.5234 129.101 83.2975C129.784 83.9749 130.175 85.0878 130.175 86.6845V94.91H126.366L126.317 93.5552C126.659 94.523 127.245 94.91 126.366 94.91L118.017 94.7649ZM126.025 89.4425H119.091C118.75 89.4425 118.408 89.5876 118.164 89.8296C117.92 90.0715 117.773 90.3618 117.773 90.7005C117.773 91.0392 117.92 91.3295 118.164 91.5714C118.408 91.8134 118.798 91.9585 119.14 91.9585H126.025V89.4425Z" fill="#445C5F"/>
<path d="M21.343 86.8781C21.343 85.5717 21.9289 84.3621 22.9054 83.5395C23.8819 82.6202 25.2002 82.088 26.5673 82.1363H33.8423C35.2094 82.1363 36.5277 82.6202 37.5042 83.5395C38.4807 84.3621 39.0666 85.5717 39.0666 86.8297V90.0232C39.0666 91.2812 38.4807 92.4909 37.5042 93.3134C36.4789 94.2327 35.1606 94.7166 33.7935 94.7166H26.6161C25.249 94.7166 23.9307 94.2327 22.9054 93.3134C21.9289 92.4909 21.343 91.2812 21.343 89.9748V86.8781ZM25.4932 89.4426C25.4932 89.9264 25.7373 90.4103 26.0791 90.749C26.4697 91.1361 27.0556 91.378 27.5926 91.3296H32.8658C33.4517 91.378 33.9888 91.1361 34.3794 90.749C34.77 90.4103 34.9653 89.9748 34.9653 89.4426V87.362C34.9653 86.8781 34.77 86.3943 34.3794 86.0556C33.9888 85.6685 33.4029 85.4266 32.8658 85.4749H27.5926C27.0067 85.4266 26.4697 85.6685 26.0791 86.0556C25.6885 86.3943 25.4932 86.8781 25.4932 87.362C25.4932 87.362 25.4932 89.4426 25.4932 89.4426Z" fill="#D50E50"/>
<path d="M71.7796 94.7649H60.5497C59.1826 94.7649 57.8644 94.2811 56.839 93.3618C55.8625 92.5392 55.2766 91.3296 55.2766 90.0232V86.8781C55.2766 85.5717 55.8625 84.3621 56.839 83.5395C57.8155 82.6202 59.1338 82.088 60.5009 82.1363H67.3853C68.7524 82.088 70.0707 82.6202 71.0472 83.5395C72.0237 84.3621 72.6096 85.5717 72.6096 86.8781V89.4425H59.2803V89.7812C59.2803 90.3135 59.4756 90.7973 59.8662 91.136C60.3056 91.4747 60.8427 91.6683 61.3798 91.6683H71.7307L71.7796 94.7649ZM68.6059 87.0233V86.8781C68.6547 86.3459 68.4106 85.8136 68.02 85.4749C67.5806 85.0879 67.0435 84.9427 66.5064 84.9427H61.3798C60.8427 84.8943 60.2568 85.0879 59.8662 85.4749C59.4756 85.8136 59.2803 86.2975 59.2803 86.8297V87.0233H68.6059Z" fill="#D50E50"/>
<path d="M168.307 83.5879C167.331 82.6685 166.012 82.1363 164.645 82.1847H159.226C158.835 82.1847 158.493 82.2331 158.103 82.2815V76.3784H154.001V94.8133H158.103V87.4587C158.103 86.9748 158.298 86.491 158.689 86.1523C159.079 85.7168 159.665 85.5233 160.202 85.5233H163.669C164.206 85.4749 164.792 85.6684 165.182 86.0555C165.573 86.3942 165.768 86.8781 165.768 87.4103V94.8133H169.87V86.9265C169.87 85.62 169.333 84.4104 168.307 83.5879Z" fill="#445C5F"/>
<path d="M110.693 94.7649H99.4635C98.0964 94.7649 96.7781 94.2811 95.7528 93.3618C94.7763 92.5392 94.1904 91.3296 94.1904 90.0232V86.8781C94.1904 85.5717 94.7763 84.3621 95.7528 83.5395C96.7293 82.6202 98.0476 82.088 99.4147 82.1363H106.299C107.666 82.088 108.984 82.6202 109.961 83.5395C110.937 84.3621 111.523 85.5717 111.523 86.8781V89.4425H98.2429V89.7812C98.2429 90.3135 98.4382 90.7973 98.8288 91.136C99.2682 91.4747 99.8053 91.6683 100.342 91.6683H110.693V94.7649ZM107.569 87.0233V86.8781C107.617 86.3459 107.373 85.862 106.983 85.4749C106.543 85.0879 106.006 84.9427 105.469 84.9427H100.391C99.8541 84.8943 99.2682 85.0879 98.8776 85.4749C98.487 85.8136 98.2917 86.2975 98.2917 86.8297V87.0233H107.569Z" fill="#445C5F"/>
<path d="M137.743 76.3784H133.641V94.8133H137.743V76.3784Z" fill="#445C5F"/>
<path d="M145.115 85.0393V90.3133C145.115 90.7004 145.213 91.0875 145.408 91.3778C145.75 91.6681 146.189 91.8132 146.629 91.7649H150.73V94.7648H145.311C143.895 94.7648 142.772 94.4261 142.039 93.7003C141.307 92.9261 140.916 91.8616 140.965 90.7488V84.9909C140.965 77.6363 140.965 79.8136 140.965 76.2815H145.066V82.0878H150.047V84.9909" fill="#445C5F"/>
<path d="M54.056 82.1362H42.1914V94.7165H46.2927V87.3619C46.2927 86.878 46.488 86.3942 46.8787 86.0555C47.2693 85.6684 47.8552 85.4264 48.3922 85.4748H53.6654C53.8118 85.4748 53.9583 85.4748 54.056 85.5232V82.1362Z" fill="#D50E50"/>
<path d="M6.20715 82.2815L12.5544 82.7653C12.3591 82.9105 18.267 82.3782 18.0229 82.2815C17.5835 82.0395 14.2633 82.1363 13.1403 82.1363H5.76772C4.40061 82.1363 3.08233 82.6202 2.10582 83.5395C1.12932 84.362 0.543411 85.5717 0.543411 86.8781V90.0231C0.543411 91.2812 1.12932 92.5392 2.10582 93.3617C3.13115 94.2811 4.44944 94.7649 5.76772 94.7649H12.945C13.3356 94.7649 13.7263 94.7165 14.1169 94.6681V100.571H18.2182V82.1847L6.20715 82.2815ZM6.74423 91.3296C6.35363 91.3296 5.96302 91.2328 5.57242 91.0392C5.42594 90.9425 5.32829 90.8457 5.18182 90.7489C4.88887 90.4586 4.64474 90.0715 4.59591 89.6361C4.59591 89.6361 4.59591 89.4909 4.59591 89.4425V87.4103C4.59591 86.9265 4.79122 86.4426 5.18182 86.1039C5.57242 85.7168 6.15832 85.4749 6.6954 85.5233H11.9685C12.5544 85.4749 13.0915 85.7168 13.4821 86.1039C13.8727 86.4426 14.068 86.8781 14.068 87.4103V89.4909C14.068 89.9748 13.8727 90.4586 13.4821 90.7973C13.1892 91.136 12.7497 91.3295 12.3103 91.3779L6.74423 91.3296Z" fill="#D50E50"/>
<path d="M97.0223 51.2662H99.4147C102.002 51.2662 104.053 50.4921 105.518 49.0889C107.129 47.6373 107.959 45.6535 107.959 43.0891V28.9605C107.91 26.3961 107.129 24.5091 105.518 22.9607C103.907 21.4124 101.905 20.7834 99.4147 20.7834H72.0237C69.7777 20.735 67.5806 21.5092 65.9205 22.9607C64.4558 24.3639 63.5281 26.3477 63.5281 28.9605V43.0891C63.4304 45.3148 64.3093 47.4922 65.9205 49.0889C67.5318 50.5405 69.5824 51.2662 72.0237 51.2662H97.0223ZM86.7201 72.1688H63.6746C56.2043 72.1688 50.2476 69.7979 45.6092 64.9593C41.1173 60.1692 38.9201 54.75 38.9201 48.4599V24.6542C38.8225 18.4609 41.2637 12.4611 45.6092 7.96121C50.1499 3.3162 56.2043 0.945312 63.821 0.945312H108.74C116.406 0.945312 122.46 3.3162 126.903 7.96121C131.298 12.3643 133.69 18.2673 133.592 24.4123V48.5567C133.592 54.75 131.346 60.1692 126.903 64.9593C122.851 69.2173 117.382 71.7333 110.742 72.072" fill="#445C5F"/>
<path d="M98.8288 61.1854H118.75V41.4441H98.8288V61.1854Z" fill="#D50E50"/>
<path d="M175.397 74.4099C176.34 74.4099 177.191 74.6288 177.953 75.0666C178.724 75.5044 179.328 76.1088 179.766 76.8797C180.204 77.6411 180.423 78.4882 180.423 79.421C180.423 80.3537 180.199 81.2103 179.752 81.9907C179.304 82.7617 178.695 83.3708 177.924 83.8181C177.153 84.2655 176.302 84.4891 175.369 84.4891C174.436 84.4891 173.584 84.2655 172.813 83.8181C172.052 83.3708 171.448 82.7617 171 81.9907C170.562 81.2198 170.343 80.3727 170.343 79.4495C170.343 78.5263 170.562 77.6792 171 76.9083C171.448 76.1373 172.057 75.5282 172.828 75.0809C173.598 74.6336 174.455 74.4099 175.397 74.4099ZM175.369 83.5611C176.13 83.5611 176.82 83.3803 177.439 83.0186C178.067 82.6474 178.557 82.1478 178.909 81.5196C179.271 80.8819 179.452 80.1824 179.452 79.421C179.452 78.65 179.276 77.9552 178.924 77.3366C178.581 76.7179 178.1 76.2325 177.482 75.8804C176.863 75.5187 176.168 75.3379 175.397 75.3379C174.626 75.3379 173.932 75.5187 173.313 75.8804C172.694 76.242 172.209 76.737 171.857 77.3651C171.505 77.9933 171.329 78.6881 171.329 79.4495C171.329 80.2109 171.505 80.9057 171.857 81.5339C172.209 82.162 172.69 82.657 173.299 83.0186C173.917 83.3803 174.607 83.5611 175.369 83.5611ZM178.024 78.65C178.024 79.0498 177.934 79.3972 177.753 79.6922C177.582 79.9777 177.325 80.2014 176.982 80.3632L178.196 82.2192H176.711L175.669 80.6202H175.611H174.684V82.2192H173.199V76.6799H175.611C176.363 76.6799 176.953 76.8607 177.382 77.2224C177.81 77.5745 178.024 78.0504 178.024 78.65ZM175.512 79.5066C175.845 79.5066 176.102 79.4352 176.282 79.2925C176.473 79.1402 176.568 78.926 176.568 78.65C176.568 78.374 176.473 78.1599 176.282 78.0076C176.102 77.8553 175.845 77.7792 175.512 77.7792H174.669V79.5066H175.512Z" fill="#445C5F"/>
</g>
<defs>
<clipPath id="clip0_35_3833">
<rect width="178.457" height="99.5774" fill="white" transform="translate(0.543411 0.945312)"/>
</clipPath>
</defs>
</svg>
